<svg width="3000" height="1000" viewBox="0 0 3000 1000" fill="none" xmlns="http://www.w3.org/2000/svg">
<g clip-path="url(#clip0_2_27)">
<path d="M208.333 407.394V675C208.333 745.008 208.333 780.012 221.958 806.75C233.942 830.271 253.064 849.392 276.585 861.375C303.323 875 338.327 875 408.333 875H591.667C661.675 875 696.675 875 723.417 861.375C746.937 849.392 766.058 830.271 778.042 806.75C791.667 780.012 791.667 745.008 791.667 675V208.334M875 500L648.617 248.5C597.129 191.301 571.388 162.702 541.067 152.143C514.442 142.87 485.458 142.872 458.829 152.15C428.513 162.712 402.775 191.315 351.298 248.522L125 500" stroke="#F98F01" stroke-width="66.6667" stroke-linecap="round" stroke-linejoin="round"/>
<g clip-path="url(#clip1_2_27)">
<path d="M695 465C692.5 462.5 687.5 462.5 683.75 462.5C563.75 495 436.25 495 316.25 462.5C312.5 462.5 307.5 462.5 305 465C301.25 467.5 300 471.25 300 475V725C300 728.75 301.25 732.5 305 735C308.75 737.5 312.5 737.5 316.25 737.5C436.25 705 563.75 705 685 737.5C686.25 737.5 687.5 737.5 688.75 737.5C691.25 737.5 693.75 736.25 696.25 735C698.75 732.5 701.25 728.75 701.25 725V475C700 471.25 698.75 467.5 695 465ZM551.25 621.25L488.75 658.75C485 661.25 480 662.5 476.25 662.5C472.5 662.5 467.5 661.25 463.75 658.75C456.25 653.75 451.25 646.25 451.25 637.5V562.5C451.25 553.75 456.25 546.25 463.75 541.25C471.25 536.25 481.25 537.5 488.75 541.25L551.25 578.75C558.75 583.75 562.5 591.25 562.5 600C562.5 608.75 557.5 616.25 551.25 621.25Z" fill="#F98F01"/>
</g>
<g filter="url(#filter0_d_2_27)">
<path d="M1133.6 516.2C1150.13 491.667 1166.4 469.133 1182.4 448.6C1198.67 427.8 1214.13 409.933 1228.8 395C1243.47 380.067 1256.93 368.467 1269.2 360.2C1281.47 351.933 1292.13 347.8 1301.2 347.8C1304.67 347.8 1308.4 349.133 1312.4 351.8C1316.67 354.467 1320.53 357.933 1324 362.2C1327.73 366.467 1330.8 371.133 1333.2 376.2C1335.6 381 1336.8 385.667 1336.8 390.2C1320.27 395.533 1304 402.6 1288 411.4C1272.27 419.933 1257.07 429.933 1242.4 441.4C1228 452.6 1214.13 465.133 1200.8 479C1187.73 492.867 1175.87 507.667 1165.2 523.4C1169.47 534.333 1174.67 546.067 1180.8 558.6C1187.2 570.867 1194.13 582.867 1201.6 594.6C1209.07 606.067 1217.07 616.733 1225.6 626.6C1234.13 636.467 1242.8 644.333 1251.6 650.2C1250.27 653.133 1248 655.933 1244.8 658.6C1241.6 661.267 1238.13 663.667 1234.4 665.8C1230.67 668.2 1226.67 670.067 1222.4 671.4C1218.4 672.733 1214.67 673.4 1211.2 673.4C1204.27 673.4 1197.87 670.067 1192 663.4C1186.13 657 1180.13 647.267 1174 634.2C1168.13 620.867 1161.87 604.467 1155.2 585C1148.8 565.267 1141.6 542.333 1133.6 516.2ZM1073.2 675.4C1063.07 673 1054.67 668.733 1048 662.6C1041.33 656.733 1035.2 649.267 1029.6 640.2C1032 635.133 1034.8 628.467 1038 620.2C1041.47 611.933 1045.6 601.8 1050.4 589.8C1055.2 577.533 1060.93 563 1067.6 546.2C1074.27 529.133 1082 509.267 1090.8 486.6C1096.4 472.2 1100.93 460.067 1104.4 450.2C1108.13 440.333 1111.2 430.733 1113.6 421.4C1116.27 411.8 1118.8 401.267 1121.2 389.8C1123.6 378.333 1126.4 363.8 1129.6 346.2C1140.8 348.333 1150.93 353.267 1160 361C1169.33 368.733 1177.33 378.067 1184 389C1181.07 392.733 1177.6 398.467 1173.6 406.2C1169.87 413.667 1165.6 422.733 1160.8 433.4C1156 444.067 1150.67 455.933 1144.8 469C1138.93 482.067 1132.8 495.933 1126.4 510.6C1112 542.6 1100.67 571.933 1092.4 598.6C1084.13 625 1077.73 650.6 1073.2 675.4Z" fill="#F98F01"/>
<path d="M1133.6 516.2C1150.13 491.667 1166.4 469.133 1182.4 448.6C1198.67 427.8 1214.13 409.933 1228.8 395C1243.47 380.067 1256.93 368.467 1269.2 360.2C1281.47 351.933 1292.13 347.8 1301.2 347.8C1304.67 347.8 1308.4 349.133 1312.4 351.8C1316.67 354.467 1320.53 357.933 1324 362.2C1327.73 366.467 1330.8 371.133 1333.2 376.2C1335.6 381 1336.8 385.667 1336.8 390.2C1320.27 395.533 1304 402.6 1288 411.4C1272.27 419.933 1257.07 429.933 1242.4 441.4C1228 452.6 1214.13 465.133 1200.8 479C1187.73 492.867 1175.87 507.667 1165.2 523.4C1169.47 534.333 1174.67 546.067 1180.8 558.6C1187.2 570.867 1194.13 582.867 1201.6 594.6C1209.07 606.067 1217.07 616.733 1225.6 626.6C1234.13 636.467 1242.8 644.333 1251.6 650.2C1250.27 653.133 1248 655.933 1244.8 658.6C1241.6 661.267 1238.13 663.667 1234.4 665.8C1230.67 668.2 1226.67 670.067 1222.4 671.4C1218.4 672.733 1214.67 673.4 1211.2 673.4C1204.27 673.4 1197.87 670.067 1192 663.4C1186.13 657 1180.13 647.267 1174 634.2C1168.13 620.867 1161.87 604.467 1155.2 585C1148.8 565.267 1141.6 542.333 1133.6 516.2ZM1073.2 675.4C1063.07 673 1054.67 668.733 1048 662.6C1041.33 656.733 1035.2 649.267 1029.6 640.2C1032 635.133 1034.8 628.467 1038 620.2C1041.47 611.933 1045.6 601.8 1050.4 589.8C1055.2 577.533 1060.93 563 1067.6 546.2C1074.27 529.133 1082 509.267 1090.8 486.6C1096.4 472.2 1100.93 460.067 1104.4 450.2C1108.13 440.333 1111.2 430.733 1113.6 421.4C1116.27 411.8 1118.8 401.267 1121.2 389.8C1123.6 378.333 1126.4 363.8 1129.6 346.2C1140.8 348.333 1150.93 353.267 1160 361C1169.33 368.733 1177.33 378.067 1184 389C1181.07 392.733 1177.6 398.467 1173.6 406.2C1169.87 413.667 1165.6 422.733 1160.8 433.4C1156 444.067 1150.67 455.933 1144.8 469C1138.93 482.067 1132.8 495.933 1126.4 510.6C1112 542.6 1100.67 571.933 1092.4 598.6C1084.13 625 1077.73 650.6 1073.2 675.4Z" fill="#F98F01"/>
<path d="M1309.04 620.2C1309.04 610.6 1310.51 598.2 1313.44 583C1316.64 567.533 1320.64 551 1325.44 533.4C1330.51 515.533 1336.24 497.4 1342.64 479C1349.04 460.333 1355.57 442.867 1362.24 426.6C1368.91 410.333 1375.44 396.067 1381.84 383.8C1388.24 371.533 1393.97 362.733 1399.04 357.4C1401.71 357.667 1405.17 358.733 1409.44 360.6C1413.97 362.2 1418.51 364.2 1423.04 366.6C1427.57 369 1431.71 371.667 1435.44 374.6C1439.17 377.267 1441.57 379.8 1442.64 382.2C1434.91 389.133 1427.17 399.667 1419.44 413.8C1411.97 427.667 1404.64 443.533 1397.44 461.4C1390.51 479.267 1383.97 498.2 1377.84 518.2C1371.71 537.933 1366.37 557.133 1361.84 575.8C1357.31 594.467 1353.71 611.8 1351.04 627.8C1348.64 643.8 1347.44 656.733 1347.44 666.6C1347.44 671.133 1347.84 673.933 1348.64 675C1342.77 674.733 1338.51 673.667 1335.84 671.8C1333.17 670.2 1331.04 668.333 1329.44 666.2C1328.11 664.333 1326.77 662.333 1325.44 660.2C1324.37 658.333 1322.64 656.867 1320.24 655.8C1318.37 655 1316.77 653.133 1315.44 650.2C1314.11 647.267 1312.91 644.067 1311.84 640.6C1311.04 636.867 1310.37 633.133 1309.84 629.4C1309.31 625.667 1309.04 622.6 1309.04 620.2ZM1458.81 673.4C1443.61 668.867 1433.35 664.467 1428.01 660.2C1422.68 656.2 1420.01 650.6 1420.01 643.4C1420.01 635.4 1421.88 624.2 1425.61 609.8C1429.35 595.133 1434.15 578.867 1440.01 561C1446.15 543.133 1453.08 524.467 1460.81 505C1468.55 485.533 1476.41 466.867 1484.41 449C1492.41 431.133 1500.15 414.867 1507.61 400.2C1515.35 385.267 1522.15 373.667 1528.01 365.4L1525.21 348.6C1528.95 348.6 1534.15 349.533 1540.81 351.4C1547.48 353.267 1554.15 355.533 1560.81 358.2C1567.75 360.867 1573.75 363.667 1578.81 366.6C1584.15 369.267 1587.08 371.533 1587.61 373.4C1586.28 379.8 1585.21 389.533 1584.41 402.6C1583.61 415.4 1583.21 429.133 1583.21 443.8C1583.21 472.867 1584.28 501.4 1586.41 529.4C1588.81 557.133 1594.15 585.4 1602.41 614.2C1606.68 592.867 1611.21 571.667 1616.01 550.6C1621.08 529.267 1626.28 509 1631.61 489.8C1636.95 470.333 1642.28 452.333 1647.61 435.8C1652.95 419.267 1658.01 404.867 1662.81 392.6C1667.88 380.067 1672.55 370.333 1676.81 363.4C1681.08 356.2 1684.95 352.333 1688.41 351.8C1691.35 352.333 1694.55 353.533 1698.01 355.4C1701.48 357 1704.81 359 1708.01 361.4C1711.21 363.8 1714.15 366.467 1716.81 369.4C1719.48 372.333 1721.61 375.267 1723.21 378.2C1714.68 381.667 1706.15 389.8 1697.61 402.6C1689.35 415.4 1681.35 431 1673.61 449.4C1666.15 467.533 1659.08 487.267 1652.41 508.6C1646.01 529.933 1640.28 551 1635.21 571.8C1630.41 592.333 1626.55 611.4 1623.61 629C1620.95 646.6 1619.48 660.733 1619.21 671.4C1619.21 671.933 1619.35 672.333 1619.61 672.6C1618.81 672.867 1617.88 673 1616.81 673C1616.01 673 1615.21 673 1614.41 673C1602.15 673 1591.21 671.4 1581.61 668.2C1572.28 665.267 1566.15 661 1563.21 655.4C1557.61 633 1552.95 611.4 1549.21 590.6C1545.48 569.8 1542.28 549 1539.61 528.2C1537.21 507.4 1535.21 486.467 1533.61 465.4C1532.28 444.067 1531.21 421.8 1530.41 398.6C1525.35 406.6 1520.01 417.133 1514.41 430.2C1508.81 443 1503.35 457.133 1498.01 472.6C1492.68 488.067 1487.48 504.333 1482.41 521.4C1477.61 538.467 1473.35 555.133 1469.61 571.4C1465.88 587.667 1462.95 603.133 1460.81 617.8C1458.68 632.2 1457.61 644.733 1457.61 655.4C1457.61 661 1457.61 665 1457.61 667.4C1457.88 669.8 1458.28 671.8 1458.81 673.4ZM1880.66 351.8C1885.73 353.933 1890.93 356.733 1896.26 360.2C1901.59 363.4 1906.53 366.733 1911.06 370.2C1915.59 373.667 1919.33 377.133 1922.26 380.6C1925.46 383.8 1927.19 386.467 1927.46 388.6C1922.93 387.533 1918.39 386.867 1913.86 386.6C1909.33 386.067 1905.19 385.8 1901.46 385.8C1889.46 385.8 1877.46 388.733 1865.46 394.6C1853.73 400.467 1842.53 408.467 1831.86 418.6C1821.19 428.733 1811.33 440.6 1802.26 454.2C1793.19 467.8 1785.33 482.333 1778.66 497.8C1772.26 513.267 1767.19 529.267 1763.46 545.8C1759.73 562.333 1757.86 578.6 1757.86 594.6C1757.86 615.4 1761.33 630.867 1768.26 641C1775.19 651.133 1785.33 656.2 1798.66 656.2C1805.06 656.2 1811.99 654.867 1819.46 652.2C1826.93 649.8 1834.53 646.333 1842.26 641.8C1849.99 637.267 1857.59 631.8 1865.06 625.4C1872.53 619 1879.46 611.933 1885.86 604.2C1895.19 593 1903.59 580.333 1911.06 566.2C1918.53 551.8 1924.79 536.6 1929.86 520.6C1935.19 504.6 1939.19 488.2 1941.86 471.4C1944.79 454.333 1946.26 437.667 1946.26 421.4C1946.26 415 1946.13 409.667 1945.86 405.4C1945.59 400.867 1945.19 397.133 1944.66 394.2C1944.39 391 1944.13 388.467 1943.86 386.6C1943.59 384.733 1943.33 383.133 1943.06 381.8C1946.26 383.4 1949.73 385.4 1953.46 387.8C1957.46 389.933 1961.06 393.267 1964.26 397.8C1967.73 402.067 1970.53 407.8 1972.66 415C1975.06 422.2 1976.26 431.533 1976.26 443C1976.26 461.667 1973.99 480.067 1969.46 498.2C1965.19 516.067 1959.06 533.133 1951.06 549.4C1943.33 565.667 1934.13 580.867 1923.46 595C1912.79 609.133 1901.33 621.533 1889.06 632.2C1873.06 646.333 1855.99 657.267 1837.86 665C1819.73 672.733 1802.26 676.6 1785.46 676.6C1760.93 676.6 1742.13 668.733 1729.06 653C1716.26 637.533 1709.86 614.6 1709.86 584.2C1709.86 567.933 1711.59 550.733 1715.06 532.6C1718.79 514.467 1723.86 496.6 1730.26 479C1736.93 461.4 1744.79 444.733 1753.86 429C1762.93 413 1772.79 399 1783.46 387C1794.39 374.733 1805.99 365 1818.26 357.8C1830.79 350.6 1843.59 347 1856.66 347C1860.93 347 1864.93 347.4 1868.66 348.2C1872.39 348.733 1876.39 349.933 1880.66 351.8ZM2190.83 644.6C2188.43 647 2184.83 649.667 2180.03 652.6C2175.5 655.8 2170.56 658.6 2165.23 661C2159.9 663.667 2154.43 665.933 2148.83 667.8C2143.5 669.933 2139.1 671.133 2135.63 671.4C2132.16 671.4 2129.1 670.067 2126.43 667.4C2123.76 664.733 2120.96 658.6 2118.03 649C2115.1 639.667 2111.63 626.067 2107.63 608.2C2103.9 590.067 2099.1 565.533 2093.23 534.6C2078.03 550.333 2063.9 565.533 2050.83 580.2C2037.76 594.867 2026.56 608.467 2017.23 621C2007.9 633.533 2000.56 644.467 1995.23 653.8C1989.9 663.133 1987.23 670.2 1987.23 675C1984.03 674.733 1980.7 673.533 1977.23 671.4C1974.03 669.267 1971.1 666.733 1968.43 663.8C1965.76 660.867 1963.5 657.667 1961.63 654.2C1960.03 650.733 1959.23 647.4 1959.23 644.2C1960.03 641.267 1962.03 637.133 1965.23 631.8C1968.43 626.467 1972.43 620.733 1977.23 614.6C1987.36 601.533 2001.76 586.467 2020.43 569.4C2039.36 552.067 2062.16 533 2088.83 512.2C2071.5 426.067 2046.96 383 2015.23 383C2018.43 375.267 2023.5 368.467 2030.43 362.6C2037.63 356.733 2045.23 353.133 2053.23 351.8C2062.03 351.8 2069.23 353 2074.83 355.4C2080.43 357.533 2085.5 363.133 2090.03 372.2C2094.56 381.267 2099.1 395 2103.63 413.4C2108.16 431.533 2113.9 456.467 2120.83 488.2C2129.63 478.867 2138.03 469.4 2146.03 459.8C2154.3 449.933 2161.9 440.467 2168.83 431.4C2175.76 422.333 2181.9 413.933 2187.23 406.2C2192.56 398.467 2196.7 391.8 2199.63 386.2C2202.56 381.133 2204.03 375.933 2204.03 370.6C2204.03 365.8 2202.56 359.533 2199.63 351.8C2208.16 356.867 2214.56 361.667 2218.83 366.2C2223.36 370.467 2227.23 376.467 2230.43 384.2C2229.9 390.6 2228.03 397 2224.83 403.4C2221.9 409.8 2216.56 417.533 2208.83 426.6C2201.36 435.4 2190.96 446.333 2177.63 459.4C2164.3 472.467 2146.83 488.733 2125.23 508.2C2130.3 532.2 2135.23 552.467 2140.03 569C2144.83 585.533 2149.76 599.133 2154.83 609.8C2159.9 620.2 2165.36 628.2 2171.23 633.8C2177.1 639.133 2183.63 642.733 2190.83 644.6ZM2245.12 673.4C2232.32 669.667 2223.39 665.933 2218.32 662.2C2213.52 658.467 2211.12 653.8 2211.12 648.2C2211.12 643.933 2212.32 637.933 2214.72 630.2C2217.12 622.467 2220.59 613.4 2225.12 603C2229.92 592.333 2235.52 580.6 2241.92 567.8C2248.59 555 2256.05 541.267 2264.32 526.6C2257.39 526.333 2251.12 526.2 2245.52 526.2C2240.19 525.933 2235.79 525.8 2232.32 525.8C2233.92 521.8 2238.45 518.333 2245.92 515.4C2253.39 512.467 2263.25 509.933 2275.52 507.8C2285.92 490.467 2296.99 473.933 2308.72 458.2C2320.72 442.467 2332.72 428.067 2344.72 415C2356.72 401.667 2368.72 390.067 2380.72 380.2C2392.72 370.067 2404.19 362.067 2415.12 356.2C2415.39 354.333 2415.52 352.733 2415.52 351.4C2415.79 350.067 2415.92 349.133 2415.92 348.6C2419.65 348.6 2424.59 349.533 2430.72 351.4C2437.12 353.267 2443.25 355.533 2449.12 358.2C2455.25 360.867 2460.59 363.667 2465.12 366.6C2469.92 369.267 2472.59 371.533 2473.12 373.4C2464.32 388.867 2455.65 412.067 2447.12 443C2438.59 473.667 2431.52 510.467 2425.92 553.4C2424.59 564.067 2423.39 576.2 2422.32 589.8C2421.52 603.4 2421.12 618.6 2421.12 635.4C2421.12 641.267 2421.12 647.267 2421.12 653.4C2421.12 659.533 2421.39 665.933 2421.92 672.6C2421.39 672.867 2420.85 673 2420.32 673C2419.79 673 2418.72 673 2417.12 673C2413.39 673 2408.99 672.333 2403.92 671C2399.12 669.933 2394.32 668.467 2389.52 666.6C2384.99 665 2380.99 663.133 2377.52 661C2374.32 658.867 2372.32 657 2371.52 655.4C2371.25 651.933 2371.12 648.467 2371.12 645C2371.12 641.8 2371.12 638.333 2371.12 634.6C2371.12 618.067 2371.65 601.267 2372.72 584.2C2374.05 567.133 2376.19 549.533 2379.12 531.4C2375.39 531.133 2370.45 530.867 2364.32 530.6C2358.19 530.067 2351.25 529.667 2343.52 529.4C2336.05 529.133 2327.92 528.867 2319.12 528.6C2310.59 528.067 2302.19 527.667 2293.92 527.4C2287.52 539.4 2281.52 551.4 2275.92 563.4C2270.32 575.133 2265.52 587 2261.52 599C2256.99 611.8 2253.25 624.6 2250.32 637.4C2247.65 650.2 2245.92 662.2 2245.12 673.4ZM2399.52 433C2400.59 429.267 2401.79 424.2 2403.12 417.8C2404.72 411.133 2406.19 404.2 2407.52 397C2400.85 399.4 2393.39 403.8 2385.12 410.2C2377.12 416.6 2368.72 424.6 2359.92 434.2C2351.39 443.533 2342.59 454.2 2333.52 466.2C2324.72 477.933 2316.19 490.467 2307.92 503.8C2330.32 501.933 2355.79 500.733 2384.32 500.2C2386.45 489 2388.72 477.933 2391.12 467C2393.79 455.8 2396.59 444.467 2399.52 433ZM2546.55 400.6C2535.89 400.6 2527.62 397.667 2521.75 391.8C2516.15 385.667 2513.35 378.333 2513.35 369.8C2513.35 367.667 2513.62 365.133 2514.15 362.2C2514.95 359.267 2515.89 356.733 2516.95 354.6C2520.42 356.2 2525.49 357.4 2532.15 358.2C2539.09 358.733 2547.09 359 2556.15 359C2569.75 359 2585.09 358.467 2602.15 357.4C2619.49 356.067 2636.02 354.733 2651.75 353.4C2667.49 352.067 2681.35 350.867 2693.35 349.8C2705.35 348.467 2713.09 347.8 2716.55 347.8C2726.42 347.8 2733.49 351.533 2737.75 359C2742.29 366.2 2745.62 375.933 2747.75 388.2C2740.82 387.667 2733.89 387.267 2726.95 387C2720.29 386.467 2714.55 386.2 2709.75 386.2C2701.22 386.2 2692.55 386.467 2683.75 387C2675.22 387.533 2666.55 388.333 2657.75 389.4C2654.02 397.133 2649.89 406.333 2645.35 417C2640.82 427.4 2636.29 438.333 2631.75 449.8C2627.49 461.267 2623.35 472.733 2619.35 484.2C2615.35 495.4 2611.89 505.533 2608.95 514.6C2603.09 532.2 2597.89 548.467 2593.35 563.4C2589.09 578.333 2585.22 592.333 2581.75 605.4C2578.55 618.2 2575.75 630.467 2573.35 642.2C2570.95 653.933 2568.82 665.4 2566.95 676.6C2549.09 673.933 2534.15 662.733 2522.15 643C2524.29 634.733 2526.82 625.8 2529.75 616.2C2532.95 606.333 2536.55 595.267 2540.55 583C2544.82 570.467 2549.75 556.333 2555.35 540.6C2560.95 524.867 2567.35 507 2574.55 487C2577.22 479.533 2580.02 471.8 2582.95 463.8C2585.89 455.533 2588.69 447.4 2591.35 439.4C2594.29 431.4 2596.82 423.667 2598.95 416.2C2601.35 408.733 2603.35 401.933 2604.95 395.8C2593.75 397.133 2583.09 398.333 2572.95 399.4C2563.09 400.2 2554.29 400.6 2546.55 400.6ZM2701.76 673.4C2688.96 669.667 2680.03 665.933 2674.96 662.2C2670.16 658.467 2667.76 653.8 2667.76 648.2C2667.76 643.933 2668.96 637.933 2671.36 630.2C2673.76 622.467 2677.23 613.4 2681.76 603C2686.56 592.333 2692.16 580.6 2698.56 567.8C2705.23 555 2712.69 541.267 2720.96 526.6C2714.03 526.333 2707.76 526.2 2702.16 526.2C2696.83 525.933 2692.43 525.8 2688.96 525.8C2690.56 521.8 2695.09 518.333 2702.56 515.4C2710.03 512.467 2719.89 509.933 2732.16 507.8C2742.56 490.467 2753.63 473.933 2765.36 458.2C2777.36 442.467 2789.36 428.067 2801.36 415C2813.36 401.667 2825.36 390.067 2837.36 380.2C2849.36 370.067 2860.83 362.067 2871.76 356.2C2872.03 354.333 2872.16 352.733 2872.16 351.4C2872.43 350.067 2872.56 349.133 2872.56 348.6C2876.29 348.6 2881.23 349.533 2887.36 351.4C2893.76 353.267 2899.89 355.533 2905.76 358.2C2911.89 360.867 2917.23 363.667 2921.76 366.6C2926.56 369.267 2929.23 371.533 2929.76 373.4C2920.96 388.867 2912.29 412.067 2903.76 443C2895.23 473.667 2888.16 510.467 2882.56 553.4C2881.23 564.067 2880.03 576.2 2878.96 589.8C2878.16 603.4 2877.76 618.6 2877.76 635.4C2877.76 641.267 2877.76 647.267 2877.76 653.4C2877.76 659.533 2878.03 665.933 2878.56 672.6C2878.03 672.867 2877.49 673 2876.96 673C2876.43 673 2875.36 673 2873.76 673C2870.03 673 2865.63 672.333 2860.56 671C2855.76 669.933 2850.96 668.467 2846.16 666.6C2841.63 665 2837.63 663.133 2834.16 661C2830.96 658.867 2828.96 657 2828.16 655.4C2827.89 651.933 2827.76 648.467 2827.76 645C2827.76 641.8 2827.76 638.333 2827.76 634.6C2827.76 618.067 2828.29 601.267 2829.36 584.2C2830.69 567.133 2832.83 549.533 2835.76 531.4C2832.03 531.133 2827.09 530.867 2820.96 530.6C2814.83 530.067 2807.89 529.667 2800.16 529.4C2792.69 529.133 2784.56 528.867 2775.76 528.6C2767.23 528.067 2758.83 527.667 2750.56 527.4C2744.16 539.4 2738.16 551.4 2732.56 563.4C2726.96 575.133 2722.16 587 2718.16 599C2713.63 611.8 2709.89 624.6 2706.96 637.4C2704.29 650.2 2702.56 662.2 2701.76 673.4ZM2856.16 433C2857.23 429.267 2858.43 424.2 2859.76 417.8C2861.36 411.133 2862.83 404.2 2864.16 397C2857.49 399.4 2850.03 403.8 2841.76 410.2C2833.76 416.6 2825.36 424.6 2816.56 434.2C2808.03 443.533 2799.23 454.2 2790.16 466.2C2781.36 477.933 2772.83 490.467 2764.56 503.8C2786.96 501.933 2812.43 500.733 2840.96 500.2C2843.09 489 2845.36 477.933 2847.76 467C2850.43 455.8 2853.23 444.467 2856.16 433Z" fill="#F98F01"/>
</g>
</g>
<defs>
<filter id="filter0_d_2_27" x="1025.6" y="346.2" width="1908.16" height="338.4" filterUnits="userSpaceOnUse" color-interpolation-filters="sRGB">
<feFlood flood-opacity="0" result="BackgroundImageFix"/>
<feColorMatrix in="SourceAlpha" type="matrix" values="0 0 0 0 0 0 0 0 0 0 0 0 0 0 0 0 0 0 127 0" result="hardAlpha"/>
<feOffset dy="4"/>
<feGaussianBlur stdDeviation="2"/>
<feComposite in2="hardAlpha" operator="out"/>
<feColorMatrix type="matrix" values="0 0 0 0 0 0 0 0 0 0 0 0 0 0 0 0 0 0 0.25 0"/>
<feBlend mode="normal" in2="BackgroundImageFix" result="effect1_dropShadow_2_27"/>
<feBlend mode="normal" in="SourceGraphic" in2="effect1_dropShadow_2_27" result="shape"/>
</filter>
<clipPath id="clip0_2_27">
<rect width="3000" height="1000" fill="white"/>
</clipPath>
<clipPath id="clip1_2_27">
<rect width="400" height="400" fill="white" transform="translate(300 400)"/>
</clipPath>
</defs>
</svg>
